<svg xmlns="http://www.w3.org/2000/svg"><symbol id="behance" viewBox="0 0 256 256"><path d="M243.1 0H13.2A13.1 13.1 0 0 0 .1 13v230a13.1 13.1 0 0 0 13.1 13h229.9a13 13 0 0 0 13-13V13a13 13 0 0 0-13-13zm-85.2 78.9h58.6v10.8h-58.6zM82 180.9c-9.8-.4-65.1 0-65.1 0V72.4h77c49.9 4.3 33.7 49.9 17.4 49.9 32.5 13 27.1 60.7-29.3 58.6zm157.3-33.7h-73.8s-.5 13.6 14.7 17.9c21.2 6.1 30.3-8.6 30.3-8.6h28.2s-7.6 28.2-49.9 27.1c-29.2-.8-50.9-16.3-50.9-40.2 0-29.2 22.7-46.6 48.8-45.5 17.3.7 54.7 2.7 52.6 49.3z"/><path d="M188.8 116.3c-22.7 0-22.7 16.3-22.7 16.3h45.5s0-16.3-22.8-16.3zM45.7 132.6v29.3c35.7 0 55.3 3.2 55.3-14.1s-14.1-13-55.3-15.2zm0-41.2v23.8c9.7-1 53.1 5.6 53.1-11.9S56.5 92.5 45.7 91.4z"/></symbol><symbol id="email" viewBox="0 0 256 256"><path d="M243 0H13A13.1 13.1 0 0 0 0 13v230a13.1 13.1 0 0 0 13 13h230a13.1 13.1 0 0 0 13-13V13a13.1 13.1 0 0 0-13-13zm-35.8 165c0 6.3-5.8 11.5-12.9 11.5H61.7c-7.1 0-12.9-5.2-12.9-11.5V82.7l75.2 52a6.9 6.9 0 0 0 8 0l75.2-52zm-.6-94.4s-64 45.6-74.6 52.5a7.9 7.9 0 0 1-8 .1c-10.7-6.1-74.6-52.6-74.6-52.6-1.1-3.2-.6-8.1-.6-8.1h158.4s.5 4.9-.6 8.1z"/></symbol><symbol id="linked" viewBox="0 0 256 256"><path d="M242.5 0h-229a13 13 0 0 0-13 13v229a13 13 0 0 0 13 13h229a13 13 0 0 0 13-13V13a13 13 0 0 0-13-13zM66.4 193.4l-.5-89.1H94l.5 89.1zm13-99.4a16.2 16.2 0 1 1 16.2-16.2A16.2 16.2 0 0 1 79.4 94zm113.4 98.3h-27s0-37.8.1-53.6c-2.2-22-28.2-13.4-29.3-1.5s0 55.1 0 55.1h-27l-1-88.6h27v10.8c20.5-23.7 48.1-9.6 54 2.2a41.3 41.3 0 0 1 3.2 9.7z"/></symbol></svg>